<?xml version="1.0" encoding="UTF-8"?>
<svg xmlns="http://www.w3.org/2000/svg" 
     viewBox="0 0 420 670" 
     width="420" 
     height="670">
  <title>Yahtzee - Scoring Phase with Yahtzee Roll</title>
  <rect width="100%" height="100%" fill="#f8f9fa" />
  <g id="game-info">
    <text x="20" y="20" font-size="14" font-weight="bold" fill="#333333">Current Player: player1 | Scoring Phase</text>
    <text x="20" y="40" font-size="12" fill="#666666">Choose a category to score your dice</text>
  </g>
  <g id="scorecards">
    <rect x="80" y="180" width="180" height="25" fill="#f0f0f0" stroke="#333333" stroke-width="1" />
    <text x="170" y="196.5" font-size="12" font-weight="bold" fill="#333333" text-anchor="middle" dominant-baseline="middle">Category</text>
    <rect x="260" y="180" width="80" height="25" fill="#f0f0f0" stroke="#333333" stroke-width="1" />
    <text x="300" y="196.5" font-size="12" font-weight="bold" fill="#333333" text-anchor="middle" dominant-baseline="middle">player1</text>
    <rect x="80" y="205" width="180" height="25" fill="#f9f9f9" stroke="#333333" stroke-width="1" />
    <text x="170" y="221.5" font-size="12" font-weight="normal" fill="#333333" text-anchor="middle" dominant-baseline="middle">Ones</text>
    <rect x="260" y="205" width="80" height="25" fill="#e3f2fd" stroke="#333333" stroke-width="1" />
    <text x="300" y="221.5" font-size="12" font-weight="bold" fill="#333333" text-anchor="middle" dominant-baseline="middle">4</text>
    <rect x="80" y="230" width="180" height="25" fill="#f9f9f9" stroke="#333333" stroke-width="1" />
    <text x="170" y="246.5" font-size="12" font-weight="normal" fill="#333333" text-anchor="middle" dominant-baseline="middle">Twos</text>
    <rect x="260" y="230" width="80" height="25" fill="#e3f2fd" stroke="#333333" stroke-width="1" />
    <text x="300" y="246.5" font-size="12" font-weight="bold" fill="#333333" text-anchor="middle" dominant-baseline="middle">8</text>
    <rect x="80" y="255" width="180" height="25" fill="#f9f9f9" stroke="#333333" stroke-width="1" />
    <text x="170" y="271.5" font-size="12" font-weight="normal" fill="#333333" text-anchor="middle" dominant-baseline="middle">Threes</text>
    <rect x="260" y="255" width="80" height="25" fill="#e3f2fd" stroke="#333333" stroke-width="1" />
    <text x="300" y="271.5" font-size="12" font-weight="bold" fill="#333333" text-anchor="middle" dominant-baseline="middle">12</text>
    <rect x="80" y="280" width="180" height="25" fill="#f9f9f9" stroke="#333333" stroke-width="1" />
    <text x="170" y="296.5" font-size="12" font-weight="normal" fill="#333333" text-anchor="middle" dominant-baseline="middle">Fours</text>
    <rect x="260" y="280" width="80" height="25" fill="#e3f2fd" stroke="#333333" stroke-width="1" />
    <text x="300" y="296.5" font-size="12" font-weight="bold" fill="#333333" text-anchor="middle" dominant-baseline="middle">16</text>
    <rect x="80" y="305" width="180" height="25" fill="#f9f9f9" stroke="#333333" stroke-width="1" />
    <text x="170" y="321.5" font-size="12" font-weight="normal" fill="#333333" text-anchor="middle" dominant-baseline="middle">Fives</text>
    <rect x="260" y="305" width="80" height="25" fill="#e3f2fd" stroke="#333333" stroke-width="1" />
    <text x="300" y="321.5" font-size="12" font-weight="bold" fill="#333333" text-anchor="middle" dominant-baseline="middle">20</text>
    <rect x="80" y="330" width="180" height="25" fill="#f9f9f9" stroke="#333333" stroke-width="1" />
    <text x="170" y="346.5" font-size="12" font-weight="normal" fill="#333333" text-anchor="middle" dominant-baseline="middle">Sixes</text>
    <rect x="260" y="330" width="80" height="25" fill="#e3f2fd" stroke="#333333" stroke-width="1" />
    <text x="300" y="346.5" font-size="12" font-weight="normal" fill="#333333" text-anchor="middle" dominant-baseline="middle">-</text>
    <rect x="80" y="355" width="180" height="25" fill="#f9f9f9" stroke="#333333" stroke-width="1" />
    <text x="170" y="371.5" font-size="12" font-weight="normal" fill="#333333" text-anchor="middle" dominant-baseline="middle">Upper Total</text>
    <rect x="260" y="355" width="80" height="25" fill="#e3f2fd" stroke="#333333" stroke-width="1" />
    <text x="300" y="371.5" font-size="12" font-weight="bold" fill="#333333" text-anchor="middle" dominant-baseline="middle">60</text>
    <rect x="80" y="380" width="180" height="25" fill="#f9f9f9" stroke="#333333" stroke-width="1" />
    <text x="170" y="396.5" font-size="12" font-weight="normal" fill="#333333" text-anchor="middle" dominant-baseline="middle">Bonus (63+)</text>
    <rect x="260" y="380" width="80" height="25" fill="#e3f2fd" stroke="#333333" stroke-width="1" />
    <text x="300" y="396.5" font-size="12" font-weight="bold" fill="#333333" text-anchor="middle" dominant-baseline="middle">0</text>
    <rect x="80" y="405" width="180" height="25" fill="#f9f9f9" stroke="#333333" stroke-width="1" />
    <text x="170" y="421.5" font-size="12" font-weight="normal" fill="#333333" text-anchor="middle" dominant-baseline="middle">Upper + Bonus</text>
    <rect x="260" y="405" width="80" height="25" fill="#e3f2fd" stroke="#333333" stroke-width="1" />
    <text x="300" y="421.5" font-size="12" font-weight="bold" fill="#333333" text-anchor="middle" dominant-baseline="middle">60</text>
    <rect x="80" y="429" width="260" height="2" fill="#333333" stroke="none" />
    <rect x="80" y="430" width="180" height="25" fill="#f9f9f9" stroke="#333333" stroke-width="1" />
    <text x="170" y="446.5" font-size="12" font-weight="normal" fill="#333333" text-anchor="middle" dominant-baseline="middle">Three of a Kind</text>
    <rect x="260" y="430" width="80" height="25" fill="#e3f2fd" stroke="#333333" stroke-width="1" />
    <text x="300" y="446.5" font-size="12" font-weight="bold" fill="#333333" text-anchor="middle" dominant-baseline="middle">18</text>
    <rect x="80" y="455" width="180" height="25" fill="#f9f9f9" stroke="#333333" stroke-width="1" />
    <text x="170" y="471.5" font-size="12" font-weight="normal" fill="#333333" text-anchor="middle" dominant-baseline="middle">Four of a Kind</text>
    <rect x="260" y="455" width="80" height="25" fill="#e3f2fd" stroke="#333333" stroke-width="1" />
    <text x="300" y="471.5" font-size="12" font-weight="bold" fill="#333333" text-anchor="middle" dominant-baseline="middle">22</text>
    <rect x="80" y="480" width="180" height="25" fill="#f9f9f9" stroke="#333333" stroke-width="1" />
    <text x="170" y="496.5" font-size="12" font-weight="normal" fill="#333333" text-anchor="middle" dominant-baseline="middle">Full House</text>
    <rect x="260" y="480" width="80" height="25" fill="#e3f2fd" stroke="#333333" stroke-width="1" />
    <text x="300" y="496.5" font-size="12" font-weight="normal" fill="#333333" text-anchor="middle" dominant-baseline="middle">-</text>
    <rect x="80" y="505" width="180" height="25" fill="#f9f9f9" stroke="#333333" stroke-width="1" />
    <text x="170" y="521.5" font-size="12" font-weight="normal" fill="#333333" text-anchor="middle" dominant-baseline="middle">Small Straight</text>
    <rect x="260" y="505" width="80" height="25" fill="#e3f2fd" stroke="#333333" stroke-width="1" />
    <text x="300" y="521.5" font-size="12" font-weight="normal" fill="#333333" text-anchor="middle" dominant-baseline="middle">-</text>
    <rect x="80" y="530" width="180" height="25" fill="#f9f9f9" stroke="#333333" stroke-width="1" />
    <text x="170" y="546.5" font-size="12" font-weight="normal" fill="#333333" text-anchor="middle" dominant-baseline="middle">Large Straight</text>
    <rect x="260" y="530" width="80" height="25" fill="#e3f2fd" stroke="#333333" stroke-width="1" />
    <text x="300" y="546.5" font-size="12" font-weight="normal" fill="#333333" text-anchor="middle" dominant-baseline="middle">-</text>
    <rect x="80" y="555" width="180" height="25" fill="#f9f9f9" stroke="#333333" stroke-width="1" />
    <text x="170" y="571.5" font-size="12" font-weight="normal" fill="#333333" text-anchor="middle" dominant-baseline="middle">Yahtzee</text>
    <rect x="260" y="555" width="80" height="25" fill="#e3f2fd" stroke="#333333" stroke-width="1" />
    <text x="300" y="571.5" font-size="12" font-weight="normal" fill="#333333" text-anchor="middle" dominant-baseline="middle">-</text>
    <rect x="80" y="580" width="180" height="25" fill="#f9f9f9" stroke="#333333" stroke-width="1" />
    <text x="170" y="596.5" font-size="12" font-weight="normal" fill="#333333" text-anchor="middle" dominant-baseline="middle">Chance</text>
    <rect x="260" y="580" width="80" height="25" fill="#e3f2fd" stroke="#333333" stroke-width="1" />
    <text x="300" y="596.5" font-size="12" font-weight="normal" fill="#333333" text-anchor="middle" dominant-baseline="middle">-</text>
    <rect x="80" y="605" width="180" height="25" fill="#f9f9f9" stroke="#333333" stroke-width="1" />
    <text x="170" y="621.5" font-size="12" font-weight="normal" fill="#333333" text-anchor="middle" dominant-baseline="middle">Lower Total</text>
    <rect x="260" y="605" width="80" height="25" fill="#e3f2fd" stroke="#333333" stroke-width="1" />
    <text x="300" y="621.5" font-size="12" font-weight="bold" fill="#333333" text-anchor="middle" dominant-baseline="middle">40</text>
    <rect x="80" y="629" width="260" height="2" fill="#333333" stroke="none" />
    <rect x="80" y="630" width="180" height="25" fill="#f9f9f9" stroke="#333333" stroke-width="1" />
    <text x="170" y="646.5" font-size="12" font-weight="normal" fill="#333333" text-anchor="middle" dominant-baseline="middle">GRAND TOTAL</text>
    <rect x="260" y="630" width="80" height="25" fill="#e3f2fd" stroke="#333333" stroke-width="1" />
    <text x="300" y="646.5" font-size="12" font-weight="bold" fill="#333333" text-anchor="middle" dominant-baseline="middle">100</text>
  </g>
  <g id="dice">
    <rect x="20" y="80" width="60" height="60" fill="#ffffff" stroke="#2ecc71" stroke-width="4" rx="8" class="die" />
    <circle cx="38" cy="98" r="4" fill="#333333" />
    <circle cx="50" cy="98" r="4" fill="#333333" />
    <circle cx="62" cy="98" r="4" fill="#333333" />
    <circle cx="38" cy="122" r="4" fill="#333333" />
    <circle cx="50" cy="122" r="4" fill="#333333" />
    <circle cx="62" cy="122" r="4" fill="#333333" />
    <rect x="17" y="77" width="66" height="66" fill="none" stroke="#2ecc71" stroke-width="3" rx="10" class="keep-indicator" />
    <rect x="100" y="80" width="60" height="60" fill="#ffffff" stroke="#2ecc71" stroke-width="4" rx="8" class="die" />
    <circle cx="118" cy="98" r="4" fill="#333333" />
    <circle cx="130" cy="98" r="4" fill="#333333" />
    <circle cx="142" cy="98" r="4" fill="#333333" />
    <circle cx="118" cy="122" r="4" fill="#333333" />
    <circle cx="130" cy="122" r="4" fill="#333333" />
    <circle cx="142" cy="122" r="4" fill="#333333" />
    <rect x="97" y="77" width="66" height="66" fill="none" stroke="#2ecc71" stroke-width="3" rx="10" class="keep-indicator" />
    <rect x="180" y="80" width="60" height="60" fill="#ffffff" stroke="#2ecc71" stroke-width="4" rx="8" class="die" />
    <circle cx="198" cy="98" r="4" fill="#333333" />
    <circle cx="210" cy="98" r="4" fill="#333333" />
    <circle cx="222" cy="98" r="4" fill="#333333" />
    <circle cx="198" cy="122" r="4" fill="#333333" />
    <circle cx="210" cy="122" r="4" fill="#333333" />
    <circle cx="222" cy="122" r="4" fill="#333333" />
    <rect x="177" y="77" width="66" height="66" fill="none" stroke="#2ecc71" stroke-width="3" rx="10" class="keep-indicator" />
    <rect x="260" y="80" width="60" height="60" fill="#ffffff" stroke="#2ecc71" stroke-width="4" rx="8" class="die" />
    <circle cx="278" cy="98" r="4" fill="#333333" />
    <circle cx="290" cy="98" r="4" fill="#333333" />
    <circle cx="302" cy="98" r="4" fill="#333333" />
    <circle cx="278" cy="122" r="4" fill="#333333" />
    <circle cx="290" cy="122" r="4" fill="#333333" />
    <circle cx="302" cy="122" r="4" fill="#333333" />
    <rect x="257" y="77" width="66" height="66" fill="none" stroke="#2ecc71" stroke-width="3" rx="10" class="keep-indicator" />
    <rect x="340" y="80" width="60" height="60" fill="#ffffff" stroke="#2ecc71" stroke-width="4" rx="8" class="die" />
    <circle cx="358" cy="98" r="4" fill="#333333" />
    <circle cx="370" cy="98" r="4" fill="#333333" />
    <circle cx="382" cy="98" r="4" fill="#333333" />
    <circle cx="358" cy="122" r="4" fill="#333333" />
    <circle cx="370" cy="122" r="4" fill="#333333" />
    <circle cx="382" cy="122" r="4" fill="#333333" />
    <rect x="337" y="77" width="66" height="66" fill="none" stroke="#2ecc71" stroke-width="3" rx="10" class="keep-indicator" />
  </g>
</svg>