<?xml version="1.0" encoding="UTF-8"?>
<svg xmlns="http://www.w3.org/2000/svg" 
     viewBox="0 0 420 670" 
     width="420" 
     height="670">
  <title>Yahtzee - Completed Game with Winner</title>
  <rect width="100%" height="100%" fill="#f8f9fa" />
  <g id="game-info">
    <text x="20" y="20" font-size="18" font-weight="bold" fill="#2ecc71">Game Complete! Winner: player1</text>
  </g>
  <g id="scorecards">
    <rect x="40" y="180" width="180" height="25" fill="#f0f0f0" stroke="#333333" stroke-width="1" />
    <text x="130" y="196.5" font-size="12" font-weight="bold" fill="#333333" text-anchor="middle" dominant-baseline="middle">Category</text>
    <rect x="220" y="180" width="80" height="25" fill="#f0f0f0" stroke="#333333" stroke-width="1" />
    <text x="260" y="196.5" font-size="12" font-weight="bold" fill="#333333" text-anchor="middle" dominant-baseline="middle">player1</text>
    <rect x="300" y="180" width="80" height="25" fill="#f0f0f0" stroke="#333333" stroke-width="1" />
    <text x="340" y="196.5" font-size="12" font-weight="bold" fill="#333333" text-anchor="middle" dominant-baseline="middle">player2</text>
    <rect x="40" y="205" width="180" height="25" fill="#f9f9f9" stroke="#333333" stroke-width="1" />
    <text x="130" y="221.5" font-size="12" font-weight="normal" fill="#333333" text-anchor="middle" dominant-baseline="middle">Ones</text>
    <rect x="220" y="205" width="80" height="25" fill="#e3f2fd" stroke="#333333" stroke-width="1" />
    <text x="260" y="221.5" font-size="12" font-weight="bold" fill="#333333" text-anchor="middle" dominant-baseline="middle">4</text>
    <rect x="300" y="205" width="80" height="25" fill="#ffffff" stroke="#333333" stroke-width="1" />
    <text x="340" y="221.5" font-size="12" font-weight="bold" fill="#333333" text-anchor="middle" dominant-baseline="middle">2</text>
    <rect x="40" y="230" width="180" height="25" fill="#f9f9f9" stroke="#333333" stroke-width="1" />
    <text x="130" y="246.5" font-size="12" font-weight="normal" fill="#333333" text-anchor="middle" dominant-baseline="middle">Twos</text>
    <rect x="220" y="230" width="80" height="25" fill="#e3f2fd" stroke="#333333" stroke-width="1" />
    <text x="260" y="246.5" font-size="12" font-weight="bold" fill="#333333" text-anchor="middle" dominant-baseline="middle">8</text>
    <rect x="300" y="230" width="80" height="25" fill="#ffffff" stroke="#333333" stroke-width="1" />
    <text x="340" y="246.5" font-size="12" font-weight="bold" fill="#333333" text-anchor="middle" dominant-baseline="middle">4</text>
    <rect x="40" y="255" width="180" height="25" fill="#f9f9f9" stroke="#333333" stroke-width="1" />
    <text x="130" y="271.5" font-size="12" font-weight="normal" fill="#333333" text-anchor="middle" dominant-baseline="middle">Threes</text>
    <rect x="220" y="255" width="80" height="25" fill="#e3f2fd" stroke="#333333" stroke-width="1" />
    <text x="260" y="271.5" font-size="12" font-weight="bold" fill="#333333" text-anchor="middle" dominant-baseline="middle">12</text>
    <rect x="300" y="255" width="80" height="25" fill="#ffffff" stroke="#333333" stroke-width="1" />
    <text x="340" y="271.5" font-size="12" font-weight="bold" fill="#333333" text-anchor="middle" dominant-baseline="middle">6</text>
    <rect x="40" y="280" width="180" height="25" fill="#f9f9f9" stroke="#333333" stroke-width="1" />
    <text x="130" y="296.5" font-size="12" font-weight="normal" fill="#333333" text-anchor="middle" dominant-baseline="middle">Fours</text>
    <rect x="220" y="280" width="80" height="25" fill="#e3f2fd" stroke="#333333" stroke-width="1" />
    <text x="260" y="296.5" font-size="12" font-weight="bold" fill="#333333" text-anchor="middle" dominant-baseline="middle">16</text>
    <rect x="300" y="280" width="80" height="25" fill="#ffffff" stroke="#333333" stroke-width="1" />
    <text x="340" y="296.5" font-size="12" font-weight="bold" fill="#333333" text-anchor="middle" dominant-baseline="middle">8</text>
    <rect x="40" y="305" width="180" height="25" fill="#f9f9f9" stroke="#333333" stroke-width="1" />
    <text x="130" y="321.5" font-size="12" font-weight="normal" fill="#333333" text-anchor="middle" dominant-baseline="middle">Fives</text>
    <rect x="220" y="305" width="80" height="25" fill="#e3f2fd" stroke="#333333" stroke-width="1" />
    <text x="260" y="321.5" font-size="12" font-weight="bold" fill="#333333" text-anchor="middle" dominant-baseline="middle">20</text>
    <rect x="300" y="305" width="80" height="25" fill="#ffffff" stroke="#333333" stroke-width="1" />
    <text x="340" y="321.5" font-size="12" font-weight="bold" fill="#333333" text-anchor="middle" dominant-baseline="middle">10</text>
    <rect x="40" y="330" width="180" height="25" fill="#f9f9f9" stroke="#333333" stroke-width="1" />
    <text x="130" y="346.5" font-size="12" font-weight="normal" fill="#333333" text-anchor="middle" dominant-baseline="middle">Sixes</text>
    <rect x="220" y="330" width="80" height="25" fill="#e3f2fd" stroke="#333333" stroke-width="1" />
    <text x="260" y="346.5" font-size="12" font-weight="bold" fill="#333333" text-anchor="middle" dominant-baseline="middle">24</text>
    <rect x="300" y="330" width="80" height="25" fill="#ffffff" stroke="#333333" stroke-width="1" />
    <text x="340" y="346.5" font-size="12" font-weight="bold" fill="#333333" text-anchor="middle" dominant-baseline="middle">12</text>
    <rect x="40" y="355" width="180" height="25" fill="#f9f9f9" stroke="#333333" stroke-width="1" />
    <text x="130" y="371.5" font-size="12" font-weight="normal" fill="#333333" text-anchor="middle" dominant-baseline="middle">Upper Total</text>
    <rect x="220" y="355" width="80" height="25" fill="#e3f2fd" stroke="#333333" stroke-width="1" />
    <text x="260" y="371.5" font-size="12" font-weight="bold" fill="#333333" text-anchor="middle" dominant-baseline="middle">84</text>
    <rect x="300" y="355" width="80" height="25" fill="#ffffff" stroke="#333333" stroke-width="1" />
    <text x="340" y="371.5" font-size="12" font-weight="bold" fill="#333333" text-anchor="middle" dominant-baseline="middle">42</text>
    <rect x="40" y="380" width="180" height="25" fill="#f9f9f9" stroke="#333333" stroke-width="1" />
    <text x="130" y="396.5" font-size="12" font-weight="normal" fill="#333333" text-anchor="middle" dominant-baseline="middle">Bonus (63+)</text>
    <rect x="220" y="380" width="80" height="25" fill="#e3f2fd" stroke="#333333" stroke-width="1" />
    <text x="260" y="396.5" font-size="12" font-weight="bold" fill="#333333" text-anchor="middle" dominant-baseline="middle">35</text>
    <rect x="300" y="380" width="80" height="25" fill="#ffffff" stroke="#333333" stroke-width="1" />
    <text x="340" y="396.5" font-size="12" font-weight="bold" fill="#333333" text-anchor="middle" dominant-baseline="middle">0</text>
    <rect x="40" y="405" width="180" height="25" fill="#f9f9f9" stroke="#333333" stroke-width="1" />
    <text x="130" y="421.5" font-size="12" font-weight="normal" fill="#333333" text-anchor="middle" dominant-baseline="middle">Upper + Bonus</text>
    <rect x="220" y="405" width="80" height="25" fill="#e3f2fd" stroke="#333333" stroke-width="1" />
    <text x="260" y="421.5" font-size="12" font-weight="bold" fill="#333333" text-anchor="middle" dominant-baseline="middle">119</text>
    <rect x="300" y="405" width="80" height="25" fill="#ffffff" stroke="#333333" stroke-width="1" />
    <text x="340" y="421.5" font-size="12" font-weight="bold" fill="#333333" text-anchor="middle" dominant-baseline="middle">42</text>
    <rect x="40" y="429" width="340" height="2" fill="#333333" stroke="none" />
    <rect x="40" y="430" width="180" height="25" fill="#f9f9f9" stroke="#333333" stroke-width="1" />
    <text x="130" y="446.5" font-size="12" font-weight="normal" fill="#333333" text-anchor="middle" dominant-baseline="middle">Three of a Kind</text>
    <rect x="220" y="430" width="80" height="25" fill="#e3f2fd" stroke="#333333" stroke-width="1" />
    <text x="260" y="446.5" font-size="12" font-weight="bold" fill="#333333" text-anchor="middle" dominant-baseline="middle">18</text>
    <rect x="300" y="430" width="80" height="25" fill="#ffffff" stroke="#333333" stroke-width="1" />
    <text x="340" y="446.5" font-size="12" font-weight="bold" fill="#333333" text-anchor="middle" dominant-baseline="middle">15</text>
    <rect x="40" y="455" width="180" height="25" fill="#f9f9f9" stroke="#333333" stroke-width="1" />
    <text x="130" y="471.5" font-size="12" font-weight="normal" fill="#333333" text-anchor="middle" dominant-baseline="middle">Four of a Kind</text>
    <rect x="220" y="455" width="80" height="25" fill="#e3f2fd" stroke="#333333" stroke-width="1" />
    <text x="260" y="471.5" font-size="12" font-weight="bold" fill="#333333" text-anchor="middle" dominant-baseline="middle">22</text>
    <rect x="300" y="455" width="80" height="25" fill="#ffffff" stroke="#333333" stroke-width="1" />
    <text x="340" y="471.5" font-size="12" font-weight="bold" fill="#333333" text-anchor="middle" dominant-baseline="middle">0</text>
    <rect x="40" y="480" width="180" height="25" fill="#f9f9f9" stroke="#333333" stroke-width="1" />
    <text x="130" y="496.5" font-size="12" font-weight="normal" fill="#333333" text-anchor="middle" dominant-baseline="middle">Full House</text>
    <rect x="220" y="480" width="80" height="25" fill="#e3f2fd" stroke="#333333" stroke-width="1" />
    <text x="260" y="496.5" font-size="12" font-weight="bold" fill="#333333" text-anchor="middle" dominant-baseline="middle">25</text>
    <rect x="300" y="480" width="80" height="25" fill="#ffffff" stroke="#333333" stroke-width="1" />
    <text x="340" y="496.5" font-size="12" font-weight="bold" fill="#333333" text-anchor="middle" dominant-baseline="middle">25</text>
    <rect x="40" y="505" width="180" height="25" fill="#f9f9f9" stroke="#333333" stroke-width="1" />
    <text x="130" y="521.5" font-size="12" font-weight="normal" fill="#333333" text-anchor="middle" dominant-baseline="middle">Small Straight</text>
    <rect x="220" y="505" width="80" height="25" fill="#e3f2fd" stroke="#333333" stroke-width="1" />
    <text x="260" y="521.5" font-size="12" font-weight="bold" fill="#333333" text-anchor="middle" dominant-baseline="middle">30</text>
    <rect x="300" y="505" width="80" height="25" fill="#ffffff" stroke="#333333" stroke-width="1" />
    <text x="340" y="521.5" font-size="12" font-weight="bold" fill="#333333" text-anchor="middle" dominant-baseline="middle">0</text>
    <rect x="40" y="530" width="180" height="25" fill="#f9f9f9" stroke="#333333" stroke-width="1" />
    <text x="130" y="546.5" font-size="12" font-weight="normal" fill="#333333" text-anchor="middle" dominant-baseline="middle">Large Straight</text>
    <rect x="220" y="530" width="80" height="25" fill="#e3f2fd" stroke="#333333" stroke-width="1" />
    <text x="260" y="546.5" font-size="12" font-weight="bold" fill="#333333" text-anchor="middle" dominant-baseline="middle">40</text>
    <rect x="300" y="530" width="80" height="25" fill="#ffffff" stroke="#333333" stroke-width="1" />
    <text x="340" y="546.5" font-size="12" font-weight="bold" fill="#333333" text-anchor="middle" dominant-baseline="middle">0</text>
    <rect x="40" y="555" width="180" height="25" fill="#f9f9f9" stroke="#333333" stroke-width="1" />
    <text x="130" y="571.5" font-size="12" font-weight="normal" fill="#333333" text-anchor="middle" dominant-baseline="middle">Yahtzee</text>
    <rect x="220" y="555" width="80" height="25" fill="#e3f2fd" stroke="#333333" stroke-width="1" />
    <text x="260" y="571.5" font-size="12" font-weight="bold" fill="#333333" text-anchor="middle" dominant-baseline="middle">50</text>
    <rect x="300" y="555" width="80" height="25" fill="#ffffff" stroke="#333333" stroke-width="1" />
    <text x="340" y="571.5" font-size="12" font-weight="bold" fill="#333333" text-anchor="middle" dominant-baseline="middle">0</text>
    <rect x="40" y="580" width="180" height="25" fill="#f9f9f9" stroke="#333333" stroke-width="1" />
    <text x="130" y="596.5" font-size="12" font-weight="normal" fill="#333333" text-anchor="middle" dominant-baseline="middle">Chance</text>
    <rect x="220" y="580" width="80" height="25" fill="#e3f2fd" stroke="#333333" stroke-width="1" />
    <text x="260" y="596.5" font-size="12" font-weight="bold" fill="#333333" text-anchor="middle" dominant-baseline="middle">28</text>
    <rect x="300" y="580" width="80" height="25" fill="#ffffff" stroke="#333333" stroke-width="1" />
    <text x="340" y="596.5" font-size="12" font-weight="bold" fill="#333333" text-anchor="middle" dominant-baseline="middle">20</text>
    <rect x="40" y="605" width="180" height="25" fill="#f9f9f9" stroke="#333333" stroke-width="1" />
    <text x="130" y="621.5" font-size="12" font-weight="normal" fill="#333333" text-anchor="middle" dominant-baseline="middle">Lower Total</text>
    <rect x="220" y="605" width="80" height="25" fill="#e3f2fd" stroke="#333333" stroke-width="1" />
    <text x="260" y="621.5" font-size="12" font-weight="bold" fill="#333333" text-anchor="middle" dominant-baseline="middle">213</text>
    <rect x="300" y="605" width="80" height="25" fill="#ffffff" stroke="#333333" stroke-width="1" />
    <text x="340" y="621.5" font-size="12" font-weight="bold" fill="#333333" text-anchor="middle" dominant-baseline="middle">60</text>
    <rect x="40" y="629" width="340" height="2" fill="#333333" stroke="none" />
    <rect x="40" y="630" width="180" height="25" fill="#f9f9f9" stroke="#333333" stroke-width="1" />
    <text x="130" y="646.5" font-size="12" font-weight="normal" fill="#333333" text-anchor="middle" dominant-baseline="middle">GRAND TOTAL</text>
    <rect x="220" y="630" width="80" height="25" fill="#e3f2fd" stroke="#333333" stroke-width="1" />
    <text x="260" y="646.5" font-size="12" font-weight="bold" fill="#333333" text-anchor="middle" dominant-baseline="middle">332</text>
    <rect x="300" y="630" width="80" height="25" fill="#ffffff" stroke="#333333" stroke-width="1" />
    <text x="340" y="646.5" font-size="12" font-weight="bold" fill="#333333" text-anchor="middle" dominant-baseline="middle">102</text>
  </g>
  <g id="dice">
    <rect x="20" y="80" width="60" height="60" fill="#ffffff" stroke="#333333" stroke-width="2" rx="8" class="die" />
    <circle cx="50" cy="110" r="4" fill="#333333" />
    <rect x="100" y="80" width="60" height="60" fill="#ffffff" stroke="#333333" stroke-width="2" rx="8" class="die" />
    <circle cx="118" cy="98" r="4" fill="#333333" />
    <circle cx="142" cy="122" r="4" fill="#333333" />
    <rect x="180" y="80" width="60" height="60" fill="#ffffff" stroke="#333333" stroke-width="2" rx="8" class="die" />
    <circle cx="198" cy="98" r="4" fill="#333333" />
    <circle cx="210" cy="110" r="4" fill="#333333" />
    <circle cx="222" cy="122" r="4" fill="#333333" />
    <rect x="260" y="80" width="60" height="60" fill="#ffffff" stroke="#333333" stroke-width="2" rx="8" class="die" />
    <circle cx="278" cy="98" r="4" fill="#333333" />
    <circle cx="302" cy="98" r="4" fill="#333333" />
    <circle cx="278" cy="122" r="4" fill="#333333" />
    <circle cx="302" cy="122" r="4" fill="#333333" />
    <rect x="340" y="80" width="60" height="60" fill="#ffffff" stroke="#333333" stroke-width="2" rx="8" class="die" />
    <circle cx="358" cy="98" r="4" fill="#333333" />
    <circle cx="382" cy="98" r="4" fill="#333333" />
    <circle cx="370" cy="110" r="4" fill="#333333" />
    <circle cx="358" cy="122" r="4" fill="#333333" />
    <circle cx="382" cy="122" r="4" fill="#333333" />
  </g>
</svg>