<?xml version="1.0" encoding="UTF-8"?>
<svg xmlns="http://www.w3.org/2000/svg" 
     viewBox="0 0 540 670" 
     width="540" 
     height="670">
  <title>Yahtzee - Four Player Game</title>
  <rect width="100%" height="100%" fill="#f8f9fa" />
  <g id="game-info">
    <text x="20" y="20" font-size="14" font-weight="bold" fill="#333333">Current Player: player3 | Roll 2 of 3</text>
    <text x="20" y="40" font-size="12" fill="#666666">Keep dice and roll again, or choose a category to score</text>
  </g>
  <g id="scorecards">
    <rect x="20" y="180" width="180" height="25" fill="#f0f0f0" stroke="#333333" stroke-width="1" />
    <text x="110" y="196.5" font-size="12" font-weight="bold" fill="#333333" text-anchor="middle" dominant-baseline="middle">Category</text>
    <rect x="200" y="180" width="80" height="25" fill="#f0f0f0" stroke="#333333" stroke-width="1" />
    <text x="240" y="196.5" font-size="12" font-weight="bold" fill="#333333" text-anchor="middle" dominant-baseline="middle">player1</text>
    <rect x="280" y="180" width="80" height="25" fill="#f0f0f0" stroke="#333333" stroke-width="1" />
    <text x="320" y="196.5" font-size="12" font-weight="bold" fill="#333333" text-anchor="middle" dominant-baseline="middle">player2</text>
    <rect x="360" y="180" width="80" height="25" fill="#f0f0f0" stroke="#333333" stroke-width="1" />
    <text x="400" y="196.5" font-size="12" font-weight="bold" fill="#333333" text-anchor="middle" dominant-baseline="middle">player3</text>
    <rect x="440" y="180" width="80" height="25" fill="#f0f0f0" stroke="#333333" stroke-width="1" />
    <text x="480" y="196.5" font-size="12" font-weight="bold" fill="#333333" text-anchor="middle" dominant-baseline="middle">player4</text>
    <rect x="20" y="205" width="180" height="25" fill="#f9f9f9" stroke="#333333" stroke-width="1" />
    <text x="110" y="221.5" font-size="12" font-weight="normal" fill="#333333" text-anchor="middle" dominant-baseline="middle">Ones</text>
    <rect x="200" y="205" width="80" height="25" fill="#ffffff" stroke="#333333" stroke-width="1" />
    <text x="240" y="221.5" font-size="12" font-weight="bold" fill="#333333" text-anchor="middle" dominant-baseline="middle">5</text>
    <rect x="280" y="205" width="80" height="25" fill="#f9f9f9" stroke="#333333" stroke-width="1" />
    <text x="320" y="221.5" font-size="12" font-weight="normal" fill="#333333" text-anchor="middle" dominant-baseline="middle">-</text>
    <rect x="360" y="205" width="80" height="25" fill="#e3f2fd" stroke="#333333" stroke-width="1" />
    <text x="400" y="221.5" font-size="12" font-weight="normal" fill="#333333" text-anchor="middle" dominant-baseline="middle">-</text>
    <rect x="440" y="205" width="80" height="25" fill="#f9f9f9" stroke="#333333" stroke-width="1" />
    <text x="480" y="221.5" font-size="12" font-weight="normal" fill="#333333" text-anchor="middle" dominant-baseline="middle">-</text>
    <rect x="20" y="230" width="180" height="25" fill="#f9f9f9" stroke="#333333" stroke-width="1" />
    <text x="110" y="246.5" font-size="12" font-weight="normal" fill="#333333" text-anchor="middle" dominant-baseline="middle">Twos</text>
    <rect x="200" y="230" width="80" height="25" fill="#f9f9f9" stroke="#333333" stroke-width="1" />
    <text x="240" y="246.5" font-size="12" font-weight="normal" fill="#333333" text-anchor="middle" dominant-baseline="middle">-</text>
    <rect x="280" y="230" width="80" height="25" fill="#ffffff" stroke="#333333" stroke-width="1" />
    <text x="320" y="246.5" font-size="12" font-weight="bold" fill="#333333" text-anchor="middle" dominant-baseline="middle">6</text>
    <rect x="360" y="230" width="80" height="25" fill="#e3f2fd" stroke="#333333" stroke-width="1" />
    <text x="400" y="246.5" font-size="12" font-weight="normal" fill="#333333" text-anchor="middle" dominant-baseline="middle">-</text>
    <rect x="440" y="230" width="80" height="25" fill="#f9f9f9" stroke="#333333" stroke-width="1" />
    <text x="480" y="246.5" font-size="12" font-weight="normal" fill="#333333" text-anchor="middle" dominant-baseline="middle">-</text>
    <rect x="20" y="255" width="180" height="25" fill="#f9f9f9" stroke="#333333" stroke-width="1" />
    <text x="110" y="271.5" font-size="12" font-weight="normal" fill="#333333" text-anchor="middle" dominant-baseline="middle">Threes</text>
    <rect x="200" y="255" width="80" height="25" fill="#ffffff" stroke="#333333" stroke-width="1" />
    <text x="240" y="271.5" font-size="12" font-weight="bold" fill="#333333" text-anchor="middle" dominant-baseline="middle">9</text>
    <rect x="280" y="255" width="80" height="25" fill="#f9f9f9" stroke="#333333" stroke-width="1" />
    <text x="320" y="271.5" font-size="12" font-weight="normal" fill="#333333" text-anchor="middle" dominant-baseline="middle">-</text>
    <rect x="360" y="255" width="80" height="25" fill="#e3f2fd" stroke="#333333" stroke-width="1" />
    <text x="400" y="271.5" font-size="12" font-weight="normal" fill="#333333" text-anchor="middle" dominant-baseline="middle">-</text>
    <rect x="440" y="255" width="80" height="25" fill="#f9f9f9" stroke="#333333" stroke-width="1" />
    <text x="480" y="271.5" font-size="12" font-weight="normal" fill="#333333" text-anchor="middle" dominant-baseline="middle">-</text>
    <rect x="20" y="280" width="180" height="25" fill="#f9f9f9" stroke="#333333" stroke-width="1" />
    <text x="110" y="296.5" font-size="12" font-weight="normal" fill="#333333" text-anchor="middle" dominant-baseline="middle">Fours</text>
    <rect x="200" y="280" width="80" height="25" fill="#f9f9f9" stroke="#333333" stroke-width="1" />
    <text x="240" y="296.5" font-size="12" font-weight="normal" fill="#333333" text-anchor="middle" dominant-baseline="middle">-</text>
    <rect x="280" y="280" width="80" height="25" fill="#ffffff" stroke="#333333" stroke-width="1" />
    <text x="320" y="296.5" font-size="12" font-weight="bold" fill="#333333" text-anchor="middle" dominant-baseline="middle">12</text>
    <rect x="360" y="280" width="80" height="25" fill="#e3f2fd" stroke="#333333" stroke-width="1" />
    <text x="400" y="296.5" font-size="12" font-weight="normal" fill="#333333" text-anchor="middle" dominant-baseline="middle">-</text>
    <rect x="440" y="280" width="80" height="25" fill="#f9f9f9" stroke="#333333" stroke-width="1" />
    <text x="480" y="296.5" font-size="12" font-weight="normal" fill="#333333" text-anchor="middle" dominant-baseline="middle">-</text>
    <rect x="20" y="305" width="180" height="25" fill="#f9f9f9" stroke="#333333" stroke-width="1" />
    <text x="110" y="321.5" font-size="12" font-weight="normal" fill="#333333" text-anchor="middle" dominant-baseline="middle">Fives</text>
    <rect x="200" y="305" width="80" height="25" fill="#f9f9f9" stroke="#333333" stroke-width="1" />
    <text x="240" y="321.5" font-size="12" font-weight="normal" fill="#333333" text-anchor="middle" dominant-baseline="middle">-</text>
    <rect x="280" y="305" width="80" height="25" fill="#f9f9f9" stroke="#333333" stroke-width="1" />
    <text x="320" y="321.5" font-size="12" font-weight="normal" fill="#333333" text-anchor="middle" dominant-baseline="middle">-</text>
    <rect x="360" y="305" width="80" height="25" fill="#e3f2fd" stroke="#333333" stroke-width="1" />
    <text x="400" y="321.5" font-size="12" font-weight="bold" fill="#333333" text-anchor="middle" dominant-baseline="middle">15</text>
    <rect x="440" y="305" width="80" height="25" fill="#f9f9f9" stroke="#333333" stroke-width="1" />
    <text x="480" y="321.5" font-size="12" font-weight="normal" fill="#333333" text-anchor="middle" dominant-baseline="middle">-</text>
    <rect x="20" y="330" width="180" height="25" fill="#f9f9f9" stroke="#333333" stroke-width="1" />
    <text x="110" y="346.5" font-size="12" font-weight="normal" fill="#333333" text-anchor="middle" dominant-baseline="middle">Sixes</text>
    <rect x="200" y="330" width="80" height="25" fill="#f9f9f9" stroke="#333333" stroke-width="1" />
    <text x="240" y="346.5" font-size="12" font-weight="normal" fill="#333333" text-anchor="middle" dominant-baseline="middle">-</text>
    <rect x="280" y="330" width="80" height="25" fill="#f9f9f9" stroke="#333333" stroke-width="1" />
    <text x="320" y="346.5" font-size="12" font-weight="normal" fill="#333333" text-anchor="middle" dominant-baseline="middle">-</text>
    <rect x="360" y="330" width="80" height="25" fill="#e3f2fd" stroke="#333333" stroke-width="1" />
    <text x="400" y="346.5" font-size="12" font-weight="bold" fill="#333333" text-anchor="middle" dominant-baseline="middle">18</text>
    <rect x="440" y="330" width="80" height="25" fill="#f9f9f9" stroke="#333333" stroke-width="1" />
    <text x="480" y="346.5" font-size="12" font-weight="normal" fill="#333333" text-anchor="middle" dominant-baseline="middle">-</text>
    <rect x="20" y="355" width="180" height="25" fill="#f9f9f9" stroke="#333333" stroke-width="1" />
    <text x="110" y="371.5" font-size="12" font-weight="normal" fill="#333333" text-anchor="middle" dominant-baseline="middle">Upper Total</text>
    <rect x="200" y="355" width="80" height="25" fill="#ffffff" stroke="#333333" stroke-width="1" />
    <text x="240" y="371.5" font-size="12" font-weight="bold" fill="#333333" text-anchor="middle" dominant-baseline="middle">14</text>
    <rect x="280" y="355" width="80" height="25" fill="#ffffff" stroke="#333333" stroke-width="1" />
    <text x="320" y="371.5" font-size="12" font-weight="bold" fill="#333333" text-anchor="middle" dominant-baseline="middle">18</text>
    <rect x="360" y="355" width="80" height="25" fill="#e3f2fd" stroke="#333333" stroke-width="1" />
    <text x="400" y="371.5" font-size="12" font-weight="bold" fill="#333333" text-anchor="middle" dominant-baseline="middle">33</text>
    <rect x="440" y="355" width="80" height="25" fill="#ffffff" stroke="#333333" stroke-width="1" />
    <text x="480" y="371.5" font-size="12" font-weight="bold" fill="#333333" text-anchor="middle" dominant-baseline="middle">0</text>
    <rect x="20" y="380" width="180" height="25" fill="#f9f9f9" stroke="#333333" stroke-width="1" />
    <text x="110" y="396.5" font-size="12" font-weight="normal" fill="#333333" text-anchor="middle" dominant-baseline="middle">Bonus (63+)</text>
    <rect x="200" y="380" width="80" height="25" fill="#ffffff" stroke="#333333" stroke-width="1" />
    <text x="240" y="396.5" font-size="12" font-weight="bold" fill="#333333" text-anchor="middle" dominant-baseline="middle">0</text>
    <rect x="280" y="380" width="80" height="25" fill="#ffffff" stroke="#333333" stroke-width="1" />
    <text x="320" y="396.5" font-size="12" font-weight="bold" fill="#333333" text-anchor="middle" dominant-baseline="middle">0</text>
    <rect x="360" y="380" width="80" height="25" fill="#e3f2fd" stroke="#333333" stroke-width="1" />
    <text x="400" y="396.5" font-size="12" font-weight="bold" fill="#333333" text-anchor="middle" dominant-baseline="middle">0</text>
    <rect x="440" y="380" width="80" height="25" fill="#ffffff" stroke="#333333" stroke-width="1" />
    <text x="480" y="396.5" font-size="12" font-weight="bold" fill="#333333" text-anchor="middle" dominant-baseline="middle">0</text>
    <rect x="20" y="405" width="180" height="25" fill="#f9f9f9" stroke="#333333" stroke-width="1" />
    <text x="110" y="421.5" font-size="12" font-weight="normal" fill="#333333" text-anchor="middle" dominant-baseline="middle">Upper + Bonus</text>
    <rect x="200" y="405" width="80" height="25" fill="#ffffff" stroke="#333333" stroke-width="1" />
    <text x="240" y="421.5" font-size="12" font-weight="bold" fill="#333333" text-anchor="middle" dominant-baseline="middle">14</text>
    <rect x="280" y="405" width="80" height="25" fill="#ffffff" stroke="#333333" stroke-width="1" />
    <text x="320" y="421.5" font-size="12" font-weight="bold" fill="#333333" text-anchor="middle" dominant-baseline="middle">18</text>
    <rect x="360" y="405" width="80" height="25" fill="#e3f2fd" stroke="#333333" stroke-width="1" />
    <text x="400" y="421.5" font-size="12" font-weight="bold" fill="#333333" text-anchor="middle" dominant-baseline="middle">33</text>
    <rect x="440" y="405" width="80" height="25" fill="#ffffff" stroke="#333333" stroke-width="1" />
    <text x="480" y="421.5" font-size="12" font-weight="bold" fill="#333333" text-anchor="middle" dominant-baseline="middle">0</text>
    <rect x="20" y="429" width="500" height="2" fill="#333333" stroke="none" />
    <rect x="20" y="430" width="180" height="25" fill="#f9f9f9" stroke="#333333" stroke-width="1" />
    <text x="110" y="446.5" font-size="12" font-weight="normal" fill="#333333" text-anchor="middle" dominant-baseline="middle">Three of a Kind</text>
    <rect x="200" y="430" width="80" height="25" fill="#f9f9f9" stroke="#333333" stroke-width="1" />
    <text x="240" y="446.5" font-size="12" font-weight="normal" fill="#333333" text-anchor="middle" dominant-baseline="middle">-</text>
    <rect x="280" y="430" width="80" height="25" fill="#f9f9f9" stroke="#333333" stroke-width="1" />
    <text x="320" y="446.5" font-size="12" font-weight="normal" fill="#333333" text-anchor="middle" dominant-baseline="middle">-</text>
    <rect x="360" y="430" width="80" height="25" fill="#e3f2fd" stroke="#333333" stroke-width="1" />
    <text x="400" y="446.5" font-size="12" font-weight="normal" fill="#333333" text-anchor="middle" dominant-baseline="middle">-</text>
    <rect x="440" y="430" width="80" height="25" fill="#ffffff" stroke="#333333" stroke-width="1" />
    <text x="480" y="446.5" font-size="12" font-weight="bold" fill="#333333" text-anchor="middle" dominant-baseline="middle">18</text>
    <rect x="20" y="455" width="180" height="25" fill="#f9f9f9" stroke="#333333" stroke-width="1" />
    <text x="110" y="471.5" font-size="12" font-weight="normal" fill="#333333" text-anchor="middle" dominant-baseline="middle">Four of a Kind</text>
    <rect x="200" y="455" width="80" height="25" fill="#f9f9f9" stroke="#333333" stroke-width="1" />
    <text x="240" y="471.5" font-size="12" font-weight="normal" fill="#333333" text-anchor="middle" dominant-baseline="middle">-</text>
    <rect x="280" y="455" width="80" height="25" fill="#f9f9f9" stroke="#333333" stroke-width="1" />
    <text x="320" y="471.5" font-size="12" font-weight="normal" fill="#333333" text-anchor="middle" dominant-baseline="middle">-</text>
    <rect x="360" y="455" width="80" height="25" fill="#e3f2fd" stroke="#333333" stroke-width="1" />
    <text x="400" y="471.5" font-size="12" font-weight="normal" fill="#333333" text-anchor="middle" dominant-baseline="middle">-</text>
    <rect x="440" y="455" width="80" height="25" fill="#ffffff" stroke="#333333" stroke-width="1" />
    <text x="480" y="471.5" font-size="12" font-weight="bold" fill="#333333" text-anchor="middle" dominant-baseline="middle">24</text>
    <rect x="20" y="480" width="180" height="25" fill="#f9f9f9" stroke="#333333" stroke-width="1" />
    <text x="110" y="496.5" font-size="12" font-weight="normal" fill="#333333" text-anchor="middle" dominant-baseline="middle">Full House</text>
    <rect x="200" y="480" width="80" height="25" fill="#ffffff" stroke="#333333" stroke-width="1" />
    <text x="240" y="496.5" font-size="12" font-weight="bold" fill="#333333" text-anchor="middle" dominant-baseline="middle">25</text>
    <rect x="280" y="480" width="80" height="25" fill="#f9f9f9" stroke="#333333" stroke-width="1" />
    <text x="320" y="496.5" font-size="12" font-weight="normal" fill="#333333" text-anchor="middle" dominant-baseline="middle">-</text>
    <rect x="360" y="480" width="80" height="25" fill="#e3f2fd" stroke="#333333" stroke-width="1" />
    <text x="400" y="496.5" font-size="12" font-weight="normal" fill="#333333" text-anchor="middle" dominant-baseline="middle">-</text>
    <rect x="440" y="480" width="80" height="25" fill="#f9f9f9" stroke="#333333" stroke-width="1" />
    <text x="480" y="496.5" font-size="12" font-weight="normal" fill="#333333" text-anchor="middle" dominant-baseline="middle">-</text>
    <rect x="20" y="505" width="180" height="25" fill="#f9f9f9" stroke="#333333" stroke-width="1" />
    <text x="110" y="521.5" font-size="12" font-weight="normal" fill="#333333" text-anchor="middle" dominant-baseline="middle">Small Straight</text>
    <rect x="200" y="505" width="80" height="25" fill="#f9f9f9" stroke="#333333" stroke-width="1" />
    <text x="240" y="521.5" font-size="12" font-weight="normal" fill="#333333" text-anchor="middle" dominant-baseline="middle">-</text>
    <rect x="280" y="505" width="80" height="25" fill="#f9f9f9" stroke="#333333" stroke-width="1" />
    <text x="320" y="521.5" font-size="12" font-weight="normal" fill="#333333" text-anchor="middle" dominant-baseline="middle">-</text>
    <rect x="360" y="505" width="80" height="25" fill="#e3f2fd" stroke="#333333" stroke-width="1" />
    <text x="400" y="521.5" font-size="12" font-weight="normal" fill="#333333" text-anchor="middle" dominant-baseline="middle">-</text>
    <rect x="440" y="505" width="80" height="25" fill="#ffffff" stroke="#333333" stroke-width="1" />
    <text x="480" y="521.5" font-size="12" font-weight="bold" fill="#333333" text-anchor="middle" dominant-baseline="middle">30</text>
    <rect x="20" y="530" width="180" height="25" fill="#f9f9f9" stroke="#333333" stroke-width="1" />
    <text x="110" y="546.5" font-size="12" font-weight="normal" fill="#333333" text-anchor="middle" dominant-baseline="middle">Large Straight</text>
    <rect x="200" y="530" width="80" height="25" fill="#f9f9f9" stroke="#333333" stroke-width="1" />
    <text x="240" y="546.5" font-size="12" font-weight="normal" fill="#333333" text-anchor="middle" dominant-baseline="middle">-</text>
    <rect x="280" y="530" width="80" height="25" fill="#f9f9f9" stroke="#333333" stroke-width="1" />
    <text x="320" y="546.5" font-size="12" font-weight="normal" fill="#333333" text-anchor="middle" dominant-baseline="middle">-</text>
    <rect x="360" y="530" width="80" height="25" fill="#e3f2fd" stroke="#333333" stroke-width="1" />
    <text x="400" y="546.5" font-size="12" font-weight="normal" fill="#333333" text-anchor="middle" dominant-baseline="middle">-</text>
    <rect x="440" y="530" width="80" height="25" fill="#f9f9f9" stroke="#333333" stroke-width="1" />
    <text x="480" y="546.5" font-size="12" font-weight="normal" fill="#333333" text-anchor="middle" dominant-baseline="middle">-</text>
    <rect x="20" y="555" width="180" height="25" fill="#f9f9f9" stroke="#333333" stroke-width="1" />
    <text x="110" y="571.5" font-size="12" font-weight="normal" fill="#333333" text-anchor="middle" dominant-baseline="middle">Yahtzee</text>
    <rect x="200" y="555" width="80" height="25" fill="#f9f9f9" stroke="#333333" stroke-width="1" />
    <text x="240" y="571.5" font-size="12" font-weight="normal" fill="#333333" text-anchor="middle" dominant-baseline="middle">-</text>
    <rect x="280" y="555" width="80" height="25" fill="#ffffff" stroke="#333333" stroke-width="1" />
    <text x="320" y="571.5" font-size="12" font-weight="bold" fill="#333333" text-anchor="middle" dominant-baseline="middle">50</text>
    <rect x="360" y="555" width="80" height="25" fill="#e3f2fd" stroke="#333333" stroke-width="1" />
    <text x="400" y="571.5" font-size="12" font-weight="normal" fill="#333333" text-anchor="middle" dominant-baseline="middle">-</text>
    <rect x="440" y="555" width="80" height="25" fill="#f9f9f9" stroke="#333333" stroke-width="1" />
    <text x="480" y="571.5" font-size="12" font-weight="normal" fill="#333333" text-anchor="middle" dominant-baseline="middle">-</text>
    <rect x="20" y="580" width="180" height="25" fill="#f9f9f9" stroke="#333333" stroke-width="1" />
    <text x="110" y="596.5" font-size="12" font-weight="normal" fill="#333333" text-anchor="middle" dominant-baseline="middle">Chance</text>
    <rect x="200" y="580" width="80" height="25" fill="#f9f9f9" stroke="#333333" stroke-width="1" />
    <text x="240" y="596.5" font-size="12" font-weight="normal" fill="#333333" text-anchor="middle" dominant-baseline="middle">-</text>
    <rect x="280" y="580" width="80" height="25" fill="#f9f9f9" stroke="#333333" stroke-width="1" />
    <text x="320" y="596.5" font-size="12" font-weight="normal" fill="#333333" text-anchor="middle" dominant-baseline="middle">-</text>
    <rect x="360" y="580" width="80" height="25" fill="#e3f2fd" stroke="#333333" stroke-width="1" />
    <text x="400" y="596.5" font-size="12" font-weight="bold" fill="#333333" text-anchor="middle" dominant-baseline="middle">22</text>
    <rect x="440" y="580" width="80" height="25" fill="#f9f9f9" stroke="#333333" stroke-width="1" />
    <text x="480" y="596.5" font-size="12" font-weight="normal" fill="#333333" text-anchor="middle" dominant-baseline="middle">-</text>
    <rect x="20" y="605" width="180" height="25" fill="#f9f9f9" stroke="#333333" stroke-width="1" />
    <text x="110" y="621.5" font-size="12" font-weight="normal" fill="#333333" text-anchor="middle" dominant-baseline="middle">Lower Total</text>
    <rect x="200" y="605" width="80" height="25" fill="#ffffff" stroke="#333333" stroke-width="1" />
    <text x="240" y="621.5" font-size="12" font-weight="bold" fill="#333333" text-anchor="middle" dominant-baseline="middle">25</text>
    <rect x="280" y="605" width="80" height="25" fill="#ffffff" stroke="#333333" stroke-width="1" />
    <text x="320" y="621.5" font-size="12" font-weight="bold" fill="#333333" text-anchor="middle" dominant-baseline="middle">50</text>
    <rect x="360" y="605" width="80" height="25" fill="#e3f2fd" stroke="#333333" stroke-width="1" />
    <text x="400" y="621.5" font-size="12" font-weight="bold" fill="#333333" text-anchor="middle" dominant-baseline="middle">22</text>
    <rect x="440" y="605" width="80" height="25" fill="#ffffff" stroke="#333333" stroke-width="1" />
    <text x="480" y="621.5" font-size="12" font-weight="bold" fill="#333333" text-anchor="middle" dominant-baseline="middle">72</text>
    <rect x="20" y="629" width="500" height="2" fill="#333333" stroke="none" />
    <rect x="20" y="630" width="180" height="25" fill="#f9f9f9" stroke="#333333" stroke-width="1" />
    <text x="110" y="646.5" font-size="12" font-weight="normal" fill="#333333" text-anchor="middle" dominant-baseline="middle">GRAND TOTAL</text>
    <rect x="200" y="630" width="80" height="25" fill="#ffffff" stroke="#333333" stroke-width="1" />
    <text x="240" y="646.5" font-size="12" font-weight="bold" fill="#333333" text-anchor="middle" dominant-baseline="middle">39</text>
    <rect x="280" y="630" width="80" height="25" fill="#ffffff" stroke="#333333" stroke-width="1" />
    <text x="320" y="646.5" font-size="12" font-weight="bold" fill="#333333" text-anchor="middle" dominant-baseline="middle">68</text>
    <rect x="360" y="630" width="80" height="25" fill="#e3f2fd" stroke="#333333" stroke-width="1" />
    <text x="400" y="646.5" font-size="12" font-weight="bold" fill="#333333" text-anchor="middle" dominant-baseline="middle">55</text>
    <rect x="440" y="630" width="80" height="25" fill="#ffffff" stroke="#333333" stroke-width="1" />
    <text x="480" y="646.5" font-size="12" font-weight="bold" fill="#333333" text-anchor="middle" dominant-baseline="middle">72</text>
  </g>
  <g id="dice">
    <rect x="80" y="80" width="60" height="60" fill="#ffffff" stroke="#2ecc71" stroke-width="4" rx="8" class="die" />
    <circle cx="110" cy="110" r="4" fill="#333333" />
    <rect x="77" y="77" width="66" height="66" fill="none" stroke="#2ecc71" stroke-width="3" rx="10" class="keep-indicator" />
    <rect x="160" y="80" width="60" height="60" fill="#ffffff" stroke="#2ecc71" stroke-width="4" rx="8" class="die" />
    <circle cx="190" cy="110" r="4" fill="#333333" />
    <rect x="157" y="77" width="66" height="66" fill="none" stroke="#2ecc71" stroke-width="3" rx="10" class="keep-indicator" />
    <rect x="240" y="80" width="60" height="60" fill="#ffffff" stroke="#2ecc71" stroke-width="4" rx="8" class="die" />
    <circle cx="270" cy="110" r="4" fill="#333333" />
    <rect x="237" y="77" width="66" height="66" fill="none" stroke="#2ecc71" stroke-width="3" rx="10" class="keep-indicator" />
    <rect x="320" y="80" width="60" height="60" fill="#ffffff" stroke="#333333" stroke-width="2" rx="8" class="die" />
    <circle cx="338" cy="98" r="4" fill="#333333" />
    <circle cx="362" cy="122" r="4" fill="#333333" />
    <rect x="400" y="80" width="60" height="60" fill="#ffffff" stroke="#333333" stroke-width="2" rx="8" class="die" />
    <circle cx="418" cy="98" r="4" fill="#333333" />
    <circle cx="430" cy="110" r="4" fill="#333333" />
    <circle cx="442" cy="122" r="4" fill="#333333" />
  </g>
</svg>